<svg width="323" height="47" viewBox="0 0 323 47" fill="none" xmlns="http://www.w3.org/2000/svg">
<path d="M82.62 36.3C81.22 36.3 80.04 36.08 79.08 35.64C78.14 35.18 77.43 34.66 76.95 34.08C76.49 33.5 76.26 33.02 76.26 32.64C76.26 32.44 76.33 32.29 76.47 32.19C76.63 32.07 76.79 32.01 76.95 32.01H78.3C78.5 32.01 78.68 32.11 78.84 32.31C79.32 32.87 79.84 33.31 80.4 33.63C80.96 33.95 81.71 34.11 82.65 34.11C83.69 34.11 84.53 33.91 85.17 33.51C85.83 33.09 86.16 32.52 86.16 31.8C86.16 31.32 86.02 30.93 85.74 30.63C85.48 30.31 85.02 30.04 84.36 29.82C83.72 29.58 82.76 29.32 81.48 29.04C79.74 28.66 78.5 28.11 77.76 27.39C77.04 26.67 76.68 25.74 76.68 24.6C76.68 23.84 76.9 23.12 77.34 22.44C77.8 21.74 78.46 21.18 79.32 20.76C80.2 20.32 81.25 20.1 82.47 20.1C83.75 20.1 84.84 20.31 85.74 20.73C86.64 21.15 87.31 21.65 87.75 22.23C88.21 22.79 88.44 23.26 88.44 23.64C88.44 23.82 88.37 23.97 88.23 24.09C88.11 24.21 87.96 24.27 87.78 24.27H86.52C86.28 24.27 86.08 24.17 85.92 23.97C85.6 23.59 85.32 23.3 85.08 23.1C84.86 22.88 84.53 22.69 84.09 22.53C83.67 22.37 83.13 22.29 82.47 22.29C81.51 22.29 80.77 22.5 80.25 22.92C79.73 23.32 79.47 23.85 79.47 24.51C79.47 24.93 79.58 25.29 79.8 25.59C80.02 25.87 80.44 26.13 81.06 26.37C81.7 26.61 82.62 26.86 83.82 27.12C85.72 27.52 87.06 28.1 87.84 28.86C88.64 29.6 89.04 30.55 89.04 31.71C89.04 32.57 88.79 33.35 88.29 34.05C87.79 34.75 87.05 35.3 86.07 35.7C85.11 36.1 83.96 36.3 82.62 36.3ZM98.753 36.3C96.693 36.3 95.043 35.67 93.803 34.41C92.583 33.13 91.913 31.39 91.793 29.19L91.763 28.17L91.793 27.18C91.933 25.02 92.613 23.3 93.833 22.02C95.073 20.74 96.703 20.1 98.723 20.1C100.943 20.1 102.663 20.81 103.883 22.23C105.103 23.63 105.713 25.53 105.713 27.93V28.44C105.713 28.64 105.643 28.81 105.503 28.95C105.383 29.07 105.223 29.13 105.023 29.13H94.643V29.4C94.703 30.7 95.093 31.81 95.813 32.73C96.553 33.63 97.523 34.08 98.723 34.08C99.643 34.08 100.393 33.9 100.973 33.54C101.573 33.16 102.013 32.77 102.293 32.37C102.473 32.13 102.603 31.99 102.683 31.95C102.783 31.89 102.953 31.86 103.193 31.86H104.663C104.843 31.86 104.993 31.91 105.113 32.01C105.233 32.11 105.293 32.25 105.293 32.43C105.293 32.87 105.013 33.4 104.453 34.02C103.913 34.64 103.143 35.18 102.143 35.64C101.163 36.08 100.033 36.3 98.753 36.3ZM102.863 27.06V26.97C102.863 25.59 102.483 24.47 101.723 23.61C100.983 22.73 99.983 22.29 98.723 22.29C97.463 22.29 96.463 22.73 95.723 23.61C95.003 24.47 94.643 25.59 94.643 26.97V27.06H102.863ZM115.6 36.3C113.46 36.3 111.78 35.7 110.56 34.5C109.36 33.28 108.72 31.58 108.64 29.4L108.61 28.2L108.64 27C108.72 24.82 109.36 23.13 110.56 21.93C111.78 20.71 113.46 20.1 115.6 20.1C117.04 20.1 118.26 20.36 119.26 20.88C120.26 21.4 121 22.04 121.48 22.8C121.98 23.56 122.25 24.32 122.29 25.08C122.31 25.28 122.25 25.44 122.11 25.56C121.97 25.68 121.8 25.74 121.6 25.74H120.16C119.96 25.74 119.81 25.7 119.71 25.62C119.61 25.54 119.51 25.38 119.41 25.14C119.07 24.18 118.59 23.5 117.97 23.1C117.35 22.68 116.57 22.47 115.63 22.47C114.39 22.47 113.4 22.86 112.66 23.64C111.94 24.4 111.55 25.57 111.49 27.15L111.46 28.23L111.49 29.25C111.55 30.85 111.94 32.03 112.66 32.79C113.38 33.55 114.37 33.93 115.63 33.93C116.57 33.93 117.35 33.73 117.97 33.33C118.59 32.91 119.07 32.22 119.41 31.26C119.51 31.02 119.61 30.86 119.71 30.78C119.81 30.68 119.96 30.63 120.16 30.63H121.6C121.8 30.63 121.97 30.7 122.11 30.84C122.25 30.96 122.31 31.12 122.29 31.32C122.25 32.06 121.98 32.82 121.48 33.6C121 34.36 120.26 35 119.26 35.52C118.28 36.04 117.06 36.3 115.6 36.3ZM132.243 36.3C130.043 36.3 128.333 35.68 127.113 34.44C125.913 33.2 125.273 31.55 125.193 29.49L125.163 28.2L125.193 26.91C125.273 24.87 125.923 23.23 127.143 21.99C128.363 20.73 130.063 20.1 132.243 20.1C134.423 20.1 136.123 20.73 137.343 21.99C138.563 23.23 139.213 24.87 139.293 26.91C139.313 27.13 139.323 27.56 139.323 28.2C139.323 28.84 139.313 29.27 139.293 29.49C139.213 31.55 138.563 33.2 137.343 34.44C136.143 35.68 134.443 36.3 132.243 36.3ZM132.243 33.99C133.503 33.99 134.493 33.59 135.213 32.79C135.953 31.99 136.353 30.84 136.413 29.34C136.433 29.14 136.443 28.76 136.443 28.2C136.443 27.64 136.433 27.26 136.413 27.06C136.353 25.56 135.953 24.41 135.213 23.61C134.493 22.81 133.503 22.41 132.243 22.41C130.983 22.41 129.983 22.81 129.243 23.61C128.503 24.41 128.113 25.56 128.073 27.06L128.043 28.2L128.073 29.34C128.113 30.84 128.503 31.99 129.243 32.79C129.983 33.59 130.983 33.99 132.243 33.99ZM143.769 36C143.569 36 143.399 35.94 143.259 35.82C143.139 35.68 143.079 35.51 143.079 35.31V21.09C143.079 20.89 143.139 20.73 143.259 20.61C143.399 20.47 143.569 20.4 143.769 20.4H145.179C145.379 20.4 145.539 20.47 145.659 20.61C145.799 20.73 145.869 20.89 145.869 21.09V22.41C146.449 21.67 147.129 21.1 147.909 20.7C148.709 20.3 149.699 20.1 150.879 20.1C152.799 20.1 154.289 20.72 155.349 21.96C156.429 23.18 156.969 24.81 156.969 26.85V35.31C156.969 35.51 156.899 35.68 156.759 35.82C156.639 35.94 156.479 36 156.279 36H154.779C154.579 36 154.409 35.94 154.269 35.82C154.149 35.68 154.089 35.51 154.089 35.31V27C154.089 25.58 153.739 24.48 153.039 23.7C152.359 22.92 151.369 22.53 150.069 22.53C148.809 22.53 147.809 22.93 147.069 23.73C146.329 24.51 145.959 25.6 145.959 27V35.31C145.959 35.51 145.889 35.68 145.749 35.82C145.629 35.94 145.469 36 145.269 36H143.769ZM166.973 36.3C164.893 36.3 163.323 35.62 162.263 34.26C161.203 32.9 160.643 31.18 160.583 29.1L160.553 28.2L160.583 27.3C160.643 25.24 161.203 23.53 162.263 22.17C163.323 20.79 164.893 20.1 166.973 20.1C169.033 20.1 170.653 20.83 171.833 22.29V15.39C171.833 15.19 171.893 15.03 172.013 14.91C172.153 14.77 172.323 14.7 172.523 14.7H173.963C174.163 14.7 174.323 14.77 174.443 14.91C174.583 15.03 174.653 15.19 174.653 15.39V35.31C174.653 35.51 174.583 35.68 174.443 35.82C174.323 35.94 174.163 36 173.963 36H172.613C172.413 36 172.243 35.94 172.103 35.82C171.983 35.68 171.923 35.51 171.923 35.31V34.05C170.763 35.55 169.113 36.3 166.973 36.3ZM167.603 33.87C168.983 33.87 170.013 33.42 170.693 32.52C171.393 31.6 171.773 30.51 171.833 29.25C171.853 29.03 171.863 28.65 171.863 28.11C171.863 27.55 171.853 27.16 171.833 26.94C171.793 25.76 171.413 24.73 170.693 23.85C169.973 22.97 168.943 22.53 167.603 22.53C166.183 22.53 165.143 22.97 164.483 23.85C163.843 24.73 163.493 25.89 163.433 27.33L163.403 28.2C163.403 31.98 164.803 33.87 167.603 33.87ZM184.515 36.3C183.115 36.3 181.935 36.08 180.975 35.64C180.035 35.18 179.325 34.66 178.845 34.08C178.385 33.5 178.155 33.02 178.155 32.64C178.155 32.44 178.225 32.29 178.365 32.19C178.525 32.07 178.685 32.01 178.845 32.01H180.195C180.395 32.01 180.575 32.11 180.735 32.31C181.215 32.87 181.735 33.31 182.295 33.63C182.855 33.95 183.605 34.11 184.545 34.11C185.585 34.11 186.425 33.91 187.065 33.51C187.725 33.09 188.055 32.52 188.055 31.8C188.055 31.32 187.915 30.93 187.635 30.63C187.375 30.31 186.915 30.04 186.255 29.82C185.615 29.58 184.655 29.32 183.375 29.04C181.635 28.66 180.395 28.11 179.655 27.39C178.935 26.67 178.575 25.74 178.575 24.6C178.575 23.84 178.795 23.12 179.235 22.44C179.695 21.74 180.355 21.18 181.215 20.76C182.095 20.32 183.145 20.1 184.365 20.1C185.645 20.1 186.735 20.31 187.635 20.73C188.535 21.15 189.205 21.65 189.645 22.23C190.105 22.79 190.335 23.26 190.335 23.64C190.335 23.82 190.265 23.97 190.125 24.09C190.005 24.21 189.855 24.27 189.675 24.27H188.415C188.175 24.27 187.975 24.17 187.815 23.97C187.495 23.59 187.215 23.3 186.975 23.1C186.755 22.88 186.425 22.69 185.985 22.53C185.565 22.37 185.025 22.29 184.365 22.29C183.405 22.29 182.665 22.5 182.145 22.92C181.625 23.32 181.365 23.85 181.365 24.51C181.365 24.93 181.475 25.29 181.695 25.59C181.915 25.87 182.335 26.13 182.955 26.37C183.595 26.61 184.515 26.86 185.715 27.12C187.615 27.52 188.955 28.1 189.735 28.86C190.535 29.6 190.935 30.55 190.935 31.71C190.935 32.57 190.685 33.35 190.185 34.05C189.685 34.75 188.945 35.3 187.965 35.7C187.005 36.1 185.855 36.3 184.515 36.3ZM208.151 36.3C205.951 36.3 204.241 35.68 203.021 34.44C201.821 33.2 201.181 31.55 201.101 29.49L201.071 28.2L201.101 26.91C201.181 24.87 201.831 23.23 203.051 21.99C204.271 20.73 205.971 20.1 208.151 20.1C210.331 20.1 212.031 20.73 213.251 21.99C214.471 23.23 215.121 24.87 215.201 26.91C215.221 27.13 215.231 27.56 215.231 28.2C215.231 28.84 215.221 29.27 215.201 29.49C215.121 31.55 214.471 33.2 213.251 34.44C212.051 35.68 210.351 36.3 208.151 36.3ZM208.151 33.99C209.411 33.99 210.401 33.59 211.121 32.79C211.861 31.99 212.261 30.84 212.321 29.34C212.341 29.14 212.351 28.76 212.351 28.2C212.351 27.64 212.341 27.26 212.321 27.06C212.261 25.56 211.861 24.41 211.121 23.61C210.401 22.81 209.411 22.41 208.151 22.41C206.891 22.41 205.891 22.81 205.151 23.61C204.411 24.41 204.021 25.56 203.981 27.06L203.951 28.2L203.981 29.34C204.021 30.84 204.411 31.99 205.151 32.79C205.891 33.59 206.891 33.99 208.151 33.99ZM221.062 36C220.862 36 220.692 35.94 220.552 35.82C220.432 35.68 220.372 35.51 220.372 35.31V22.8H217.822C217.622 22.8 217.452 22.74 217.312 22.62C217.192 22.48 217.132 22.31 217.132 22.11V21.09C217.132 20.89 217.192 20.73 217.312 20.61C217.452 20.47 217.622 20.4 217.822 20.4H220.372V18.9C220.372 15.5 222.092 13.8 225.532 13.8H227.332C227.532 13.8 227.692 13.87 227.812 14.01C227.952 14.13 228.022 14.29 228.022 14.49V15.51C228.022 15.71 227.952 15.88 227.812 16.02C227.692 16.14 227.532 16.2 227.332 16.2H225.592C224.692 16.2 224.062 16.44 223.702 16.92C223.342 17.38 223.162 18.09 223.162 19.05V20.4H227.032C227.232 20.4 227.392 20.47 227.512 20.61C227.652 20.73 227.722 20.89 227.722 21.09V22.11C227.722 22.31 227.652 22.48 227.512 22.62C227.392 22.74 227.232 22.8 227.032 22.8H223.162V35.31C223.162 35.51 223.092 35.68 222.952 35.82C222.832 35.94 222.672 36 222.472 36H221.062ZM238.114 36C237.914 36 237.744 35.94 237.604 35.82C237.484 35.68 237.424 35.51 237.424 35.31V15.72C237.424 15.5 237.484 15.33 237.604 15.21C237.744 15.07 237.914 15 238.114 15H246.334C248.474 15 250.084 15.51 251.164 16.53C252.244 17.55 252.784 18.89 252.784 20.55C252.784 21.67 252.524 22.6 252.004 23.34C251.504 24.08 250.904 24.62 250.204 24.96C251.044 25.38 251.754 26.03 252.334 26.91C252.914 27.79 253.204 28.8 253.204 29.94C253.204 31.06 252.944 32.08 252.424 33C251.924 33.92 251.174 34.65 250.174 35.19C249.174 35.73 247.974 36 246.574 36H238.114ZM245.884 23.88C247.144 23.88 248.104 23.59 248.764 23.01C249.444 22.43 249.784 21.62 249.784 20.58C249.784 19.56 249.454 18.78 248.794 18.24C248.134 17.7 247.164 17.43 245.884 17.43H240.364V23.88H245.884ZM246.184 33.57C247.444 33.57 248.424 33.23 249.124 32.55C249.844 31.87 250.204 31 250.204 29.94C250.204 28.84 249.844 27.96 249.124 27.3C248.424 26.62 247.444 26.28 246.184 26.28H240.364V33.57H246.184ZM257.794 36C257.594 36 257.424 35.94 257.284 35.82C257.164 35.68 257.104 35.51 257.104 35.31V15.39C257.104 15.19 257.164 15.03 257.284 14.91C257.424 14.77 257.594 14.7 257.794 14.7H259.204C259.404 14.7 259.564 14.77 259.684 14.91C259.824 15.03 259.894 15.19 259.894 15.39V35.31C259.894 35.51 259.824 35.68 259.684 35.82C259.564 35.94 259.404 36 259.204 36H257.794ZM268.718 36.3C267.738 36.3 266.828 36.1 265.988 35.7C265.148 35.3 264.478 34.76 263.978 34.08C263.498 33.38 263.258 32.61 263.258 31.77C263.258 30.45 263.798 29.37 264.878 28.53C265.978 27.67 267.458 27.11 269.318 26.85L273.788 26.22V25.35C273.788 23.31 272.618 22.29 270.278 22.29C269.398 22.29 268.678 22.48 268.118 22.86C267.558 23.22 267.138 23.65 266.858 24.15C266.798 24.33 266.718 24.46 266.618 24.54C266.538 24.62 266.418 24.66 266.258 24.66H264.968C264.788 24.66 264.628 24.6 264.488 24.48C264.368 24.34 264.308 24.18 264.308 24C264.328 23.52 264.548 22.98 264.968 22.38C265.408 21.76 266.078 21.23 266.978 20.79C267.878 20.33 268.988 20.1 270.308 20.1C272.548 20.1 274.158 20.63 275.138 21.69C276.118 22.73 276.608 24.03 276.608 25.59V35.31C276.608 35.51 276.538 35.68 276.398 35.82C276.278 35.94 276.118 36 275.918 36H274.538C274.338 36 274.168 35.94 274.028 35.82C273.908 35.68 273.848 35.51 273.848 35.31V34.02C273.408 34.66 272.768 35.2 271.928 35.64C271.088 36.08 270.018 36.3 268.718 36.3ZM269.348 34.05C270.648 34.05 271.708 33.63 272.528 32.79C273.368 31.93 273.788 30.7 273.788 29.1V28.26L270.308 28.77C268.888 28.97 267.818 29.31 267.098 29.79C266.378 30.25 266.018 30.84 266.018 31.56C266.018 32.36 266.348 32.98 267.008 33.42C267.668 33.84 268.448 34.05 269.348 34.05ZM280.621 36C280.421 36 280.251 35.94 280.111 35.82C279.991 35.68 279.931 35.51 279.931 35.31V34.26C279.931 34.1 279.971 33.94 280.051 33.78C280.151 33.6 280.251 33.44 280.351 33.3L288.631 22.77H280.891C280.691 22.77 280.521 22.71 280.381 22.59C280.261 22.45 280.201 22.28 280.201 22.08V21.09C280.201 20.89 280.261 20.73 280.381 20.61C280.521 20.47 280.691 20.4 280.891 20.4H291.571C291.771 20.4 291.931 20.47 292.051 20.61C292.191 20.73 292.261 20.89 292.261 21.09V22.2C292.261 22.36 292.211 22.52 292.111 22.68C292.031 22.84 291.941 22.99 291.841 23.13L283.651 33.63H292.171C292.391 33.63 292.561 33.69 292.681 33.81C292.801 33.93 292.861 34.1 292.861 34.32V35.31C292.861 35.51 292.791 35.68 292.651 35.82C292.531 35.94 292.371 36 292.171 36H280.621ZM302.399 36.3C300.199 36.3 298.489 35.68 297.269 34.44C296.069 33.2 295.429 31.55 295.349 29.49L295.319 28.2L295.349 26.91C295.429 24.87 296.079 23.23 297.299 21.99C298.519 20.73 300.219 20.1 302.399 20.1C304.579 20.1 306.279 20.73 307.499 21.99C308.719 23.23 309.369 24.87 309.449 26.91C309.469 27.13 309.479 27.56 309.479 28.2C309.479 28.84 309.469 29.27 309.449 29.49C309.369 31.55 308.719 33.2 307.499 34.44C306.299 35.68 304.599 36.3 302.399 36.3ZM302.399 33.99C303.659 33.99 304.649 33.59 305.369 32.79C306.109 31.99 306.509 30.84 306.569 29.34C306.589 29.14 306.599 28.76 306.599 28.2C306.599 27.64 306.589 27.26 306.569 27.06C306.509 25.56 306.109 24.41 305.369 23.61C304.649 22.81 303.659 22.41 302.399 22.41C301.139 22.41 300.139 22.81 299.399 23.61C298.659 24.41 298.269 25.56 298.229 27.06L298.199 28.2L298.229 29.34C298.269 30.84 298.659 31.99 299.399 32.79C300.139 33.59 301.139 33.99 302.399 33.99ZM313.926 36C313.726 36 313.556 35.94 313.416 35.82C313.296 35.68 313.236 35.51 313.236 35.31V21.12C313.236 20.92 313.296 20.75 313.416 20.61C313.556 20.47 313.726 20.4 313.926 20.4H315.306C315.506 20.4 315.676 20.47 315.816 20.61C315.956 20.75 316.026 20.92 316.026 21.12V22.44C316.846 21.08 318.246 20.4 320.226 20.4H321.396C321.596 20.4 321.756 20.47 321.876 20.61C322.016 20.73 322.086 20.89 322.086 21.09V22.32C322.086 22.52 322.016 22.68 321.876 22.8C321.756 22.92 321.596 22.98 321.396 22.98H319.596C318.516 22.98 317.666 23.3 317.046 23.94C316.426 24.56 316.116 25.41 316.116 26.49V35.31C316.116 35.51 316.046 35.68 315.906 35.82C315.766 35.94 315.596 36 315.396 36H313.926Z" fill="#FAEBD7"/>
<path d="M11.92 37.4C9.81333 37.4 7.98667 37.0667 6.44 36.4C4.92 35.7067 3.76 34.8133 2.96 33.72C2.18667 32.6267 1.77333 31.48 1.72 30.28C1.72 30.04 1.8 29.8533 1.96 29.72C2.12 29.56 2.32 29.48 2.56 29.48H4.52C5.08 29.48 5.45333 29.7733 5.64 30.36C5.98667 31.6933 6.73333 32.64 7.88 33.2C9.02667 33.7333 10.3733 34 11.92 34C13.8133 34 15.32 33.56 16.44 32.68C17.56 31.7733 18.12 30.48 18.12 28.8C18.12 25.5733 16.16 23.96 12.24 23.96H8.44C8.17333 23.96 7.94667 23.88 7.76 23.72C7.6 23.5333 7.52 23.3067 7.52 23.04V21.96C7.52 21.5867 7.66667 21.2267 7.96 20.88L15.72 12.4H3.92C3.65333 12.4 3.42667 12.32 3.24 12.16C3.08 11.9733 3 11.7467 3 11.48V9.96C3 9.69333 3.08 9.46667 3.24 9.28C3.42667 9.09333 3.65333 9 3.92 9H19.88C20.1733 9 20.4 9.09333 20.56 9.28C20.7467 9.44 20.84 9.66666 20.84 9.96V11.4C20.84 11.72 20.6933 12.0267 20.4 12.32L12.68 20.92L13.32 20.96C16.04 21.04 18.1867 21.7467 19.76 23.08C21.3333 24.4133 22.12 26.36 22.12 28.92C22.12 30.6533 21.68 32.16 20.8 33.44C19.92 34.72 18.7067 35.7067 17.16 36.4C15.6133 37.0667 13.8667 37.4 11.92 37.4Z" fill="#FAEBD7"/>
<path d="M54.7023 21.9638C54.7023 30.5613 48.3466 38.2437 40.1445 38.2437C31.9425 38.2437 25 30.5613 25 21.9638C25 13.3662 31.4466 7.33463 39.6486 7.33463C47.8507 7.33463 54.7023 13.3662 54.7023 21.9638Z" fill="#FAEBD7"/>
<path d="M63.7066 15.5579C63.2698 18.4282 62.1124 21.5303 60.5333 24.3591C59.0757 26.9704 52.7333 35.2333 54.9 31.3333C50.8557 34.9757 46.5201 33.9248 41.1885 33.9635C40.1085 34.007 39.6313 32.656 38.5643 32.476C33.9661 31.6569 30.5379 27.5833 30.3363 22.6988C30.3579 20.055 31.3703 17.5261 33.155 15.6578C36.8682 11.7708 42.87 11.7263 46.6352 15.5579C48.4449 17.3995 49.4913 19.9132 49.5485 22.5564C49.5889 24.2258 48.899 25.6901 47.4811 25.7324C45.9663 25.7324 45.2562 24.5993 45.2562 23.0723V18.829C45.2573 17.4007 44.1588 16.239 42.7961 16.2276H39.403C37.3974 16.2131 35.522 17.2664 34.4227 19.0248C32.6344 21.8849 33.3966 25.7231 36.1252 27.5977C36.8259 28.0791 37.6164 28.3987 38.444 28.5354C40.4251 28.8622 42.429 28.1129 43.7656 26.5456L43.8842 26.3601L44.003 26.566C44.8319 27.7464 46.1691 28.414 47.5659 28.3446C50.1151 28.1504 52.0512 25.8601 51.9285 23.184C51.9404 22.0797 51.8223 20.9782 51.577 19.9042C50.9477 16.8704 49.2694 14.1881 46.8655 12.3747C41.8869 8.61884 35.0067 9.40883 30.9218 14.2053C28.9494 16.5214 27.8646 19.5208 27.8765 22.6255C27.9144 25.9176 29.1681 29.0661 31.3741 31.4096C33.58 33.753 36.5666 35.1088 39.7063 35.1921C39.7063 35.1921 40.5949 35.2768 41.5967 35.2527C46.4664 35.2204 50.8095 34.1034 54.9 31.3333C54.9582 31.2909 58.4082 27.753 55.3175 31.5748C51.2867 36.1265 46.063 38.5302 40.1445 38.2437C36.2817 38.3172 32.1202 36.2798 29.3996 33.4044C26.6787 30.5289 25.1971 26.6128 25.2983 22.5641C25.3001 17.721 27.4811 13.1624 31.1829 10.2642C33.6364 8.37022 36.6015 7.34414 39.6486 7.33463H44.2027C47.7997 7.33183 51.2299 5.74419 53.6551 2.95965C53.6804 2.93019 53.7141 2.91005 53.7512 2.90213C53.8271 2.88489 53.9051 2.92055 53.9447 2.9906C53.9641 3.02491 53.9729 3.06468 53.9698 3.10455C53.7767 5.25021 53.0953 7.31603 51.9827 9.1284C51.949 9.1927 51.9547 9.2718 51.9974 9.33005C52.0397 9.38815 52.1108 9.41467 52.1786 9.3977C56.4419 8.38818 59.9947 5.317 61.752 1.12217C61.7741 1.0852 61.8044 1.05452 61.8405 1.03275C61.9144 0.989083 62.0046 0.989083 62.0784 1.03275C62.1146 1.05438 62.145 1.08507 62.1668 1.12217C63.9517 4.7063 64.3609 11.2583 63.7066 15.5579Z" fill="#FAEBD7"/>
<rect x="49.2666" y="33.0667" width="1.73333" height="1.73333" fill="#FAEBD7"/>
<circle cx="41.4668" cy="22.6668" r="12.1333" fill="#14001E"/>
</svg>
