<?xml version="1.0" encoding="utf-8"?>
<svg xml:space="preserve" viewBox="0 0 100 100" y="0" x="0" xmlns="http://www.w3.org/2000/svg" id="Layer_1"
     version="1.1" width="203px" height="203px" xmlns:xlink="http://www.w3.org/1999/xlink"
     style="width:100%;height:100%;background-size:initial;background-repeat-y:initial;background-repeat-x:initial;background-position-y:initial;background-position-x:initial;background-origin:initial;background-color:initial;background-clip:initial;background-attachment:initial;animation-play-state:paused"><g class="ldl-scale" style="transform-origin:50% 50%;transform:rotate(0deg) scale(1, 1);animation-play-state:paused" ><g style="animation-play-state:paused" ><path fill="#e15c64" d="M50 92.5C26.6 92.5 7.5 73.4 7.5 50S26.6 7.5 50 7.5 92.5 26.6 92.5 50 73.4 92.5 50 92.5zm0-79.3c-20.3 0-36.8 16.5-36.8 36.8S29.7 86.8 50 86.8 86.8 70.3 86.8 50 70.3 13.2 50 13.2z" style="fill:rgb(22, 20, 34);animation-play-state:paused" ></path></g>
<g style="animation-play-state:paused"><path fill="#f47e5f" d="M65.7 26.4c.5-.9.2-2-.7-2.5s-2-.2-2.5.6l-15 24c0 .1-.1.1-.1.2-.4.7-.4 1.6-.1 2.3.2.6.7 1.1 1.2 1.4.2.1.3.2.5.2 1.3.4 2.8-.2 3.5-1.5l13.2-24.7z" style="fill:rgb(22, 20, 34);animation-play-state:paused" ></path></g>
<metadata xmlns:d="https://loading.io/stock/" style="animation-play-state:paused"><d:name style="animation-play-state:paused" >clock</d:name>


    <d:tags style="animation-play-state:paused">timer,time,countdown,hourglass,hour,minute,needle,circle,clock,spinner</d:tags>


    <d:license style="animation-play-state:paused">by</d:license>


    <d:slug style="animation-play-state:paused">lxcga5</d:slug></metadata></g><!-- generated by https://loading.io/ --></svg>