<svg width="39" height="38" viewBox="0 0 39 38" fill="none" xmlns="http://www.w3.org/2000/svg">
<path d="M29.7023 20.9638C29.7023 29.5613 23.3466 37.2437 15.1445 37.2437C6.94248 37.2437 0 29.5613 0 20.9638C0 12.3662 6.44655 6.33463 14.6486 6.33463C22.8507 6.33463 29.7023 12.3662 29.7023 20.9638Z" fill="#FAEBD7"/>
<path d="M38.7066 14.5579C38.2698 17.4282 37.1124 20.5303 35.5333 23.3591C34.0757 25.9704 27.7333 34.2333 29.9 30.3333C25.8557 33.9757 21.5201 32.9248 16.1885 32.9635C15.1085 33.007 14.6313 31.656 13.5643 31.476C8.96611 30.6569 5.53787 26.5833 5.33634 21.6988C5.35789 19.055 6.37027 16.5261 8.15499 14.6578C11.8682 10.7708 17.87 10.7263 21.6352 14.5579C23.4449 16.3995 24.4913 18.9132 24.5485 21.5564C24.5889 23.2258 23.899 24.6901 22.4811 24.7324C20.9663 24.7324 20.2562 23.5993 20.2562 22.0723V17.829C20.2573 16.4007 19.1588 15.239 17.7961 15.2276H14.403C12.3974 15.2131 10.522 16.2664 9.42273 18.0248C7.63438 20.8849 8.39662 24.7231 11.1252 26.5977C11.8259 27.0791 12.6164 27.3987 13.444 27.5354C15.4251 27.8622 17.429 27.1129 18.7656 25.5456L18.8842 25.3601L19.003 25.566C19.8319 26.7464 21.1691 27.414 22.5659 27.3446C25.1151 27.1504 27.0512 24.8601 26.9285 22.184C26.9404 21.0797 26.8223 19.9782 26.577 18.9042C25.9477 15.8704 24.2694 13.1881 21.8655 11.3747C16.8869 7.61884 10.0067 8.40883 5.9218 13.2053C3.94936 15.5214 2.86458 18.5208 2.87654 21.6255C2.9144 24.9176 4.16807 28.0661 6.37411 30.4096C8.57998 32.753 11.5666 34.1088 14.7063 34.1921C14.7063 34.1921 15.5949 34.2768 16.5967 34.2527C21.4664 34.2204 25.8095 33.1034 29.9 30.3333C29.9582 30.2909 33.4082 26.753 30.3175 30.5748C26.2867 35.1265 21.063 37.5302 15.1445 37.2437C11.2817 37.3172 7.1202 35.2798 4.39956 32.4044C1.67869 29.5289 0.197076 25.6128 0.29827 21.5641C0.300127 16.721 2.48108 12.1624 6.1829 9.26421C8.63644 7.37022 11.6015 6.34414 14.6486 6.33463H19.2027C22.7997 6.33183 26.2299 4.74419 28.6551 1.95965C28.6804 1.93019 28.7141 1.91005 28.7512 1.90213C28.8271 1.88489 28.9051 1.92055 28.9447 1.9906C28.9641 2.02491 28.9729 2.06468 28.9698 2.10455C28.7767 4.25021 28.0953 6.31603 26.9827 8.1284C26.949 8.1927 26.9547 8.2718 26.9974 8.33005C27.0397 8.38815 27.1108 8.41467 27.1786 8.3977C31.4419 7.38818 34.9947 4.317 36.752 0.122173C36.7741 0.0852011 36.8044 0.0545193 36.8405 0.0327523C36.9144 -0.0109174 37.0046 -0.0109174 37.0784 0.0327523C37.1146 0.0543835 37.145 0.0850653 37.1668 0.122173C38.9517 3.7063 39.3609 10.2583 38.7066 14.5579Z" fill="#FAEBD7"/>
<rect x="24.2666" y="32.0667" width="1.73333" height="1.73333" fill="#FAEBD7"/>
</svg>
